HIERARCHY
ROOT Hips
{
	OFFSET 0.000000 0.000000 0.000000
	CHANNELS 6 Xposition Yposition Zposition Xrotation Yrotation Zrotation
	JOINT LeftUpLeg_virtual
	{
		OFFSET 0.000000 0.000000 0.000000
		CHANNELS 3 Xrotation Yrotation Zrotation
		JOINT LeftUpLeg
		{
			OFFSET 15.427100 -6.655098 0.678600
			CHANNELS 3 Xrotation Yrotation Zrotation
			JOINT LeftLeg
			{
				OFFSET 4.081073 -39.591068 13.024000
				CHANNELS 3 Xrotation Yrotation Zrotation
				JOINT LeftFoot
				{
					OFFSET -4.081074 -37.707932 -15.979700
					CHANNELS 3 Xrotation Yrotation Zrotation
					JOINT LeftToeBase
					{
						OFFSET 5.346399 -15.068900 20.645000
						CHANNELS 3 Xrotation Yrotation Zrotation
						JOINT LeftToe_End
						{
							OFFSET 2.754700 0.931300 11.300900
							CHANNELS 3 Xrotation Yrotation Zrotation
							End Site
							{
								OFFSET 0 0 0
							}
						}
					}
				}
			}
		}
	}
	JOINT RightUpLeg_virtual
	{
		OFFSET 0.000000 0.000000 0.000000
		CHANNELS 3 Xrotation Yrotation Zrotation
		JOINT RightUpLeg
		{
			OFFSET -15.569500 -6.655098 0.678600
			CHANNELS 3 Xrotation Yrotation Zrotation
			JOINT RightLeg
			{
				OFFSET -4.081825 -39.591045 13.023800
				CHANNELS 3 Xrotation Yrotation Zrotation
				JOINT RightFoot
				{
					OFFSET 4.081824 -37.707954 -15.979600
					CHANNELS 3 Xrotation Yrotation Zrotation
					JOINT RightToeBase
					{
						OFFSET -5.346400 -15.068900 20.645000
						CHANNELS 3 Xrotation Yrotation Zrotation
						JOINT RightToe_End
						{
							OFFSET -2.754700 0.931300 11.300900
							CHANNELS 3 Xrotation Yrotation Zrotation
							End Site
							{
								OFFSET 0 0 0
							}
						}
					}
				}
			}
		}
	}
	JOINT Spine_virtual
	{
		OFFSET 0.000000 0.000000 0.000000
		CHANNELS 3 Xrotation Yrotation Zrotation
		JOINT Spine
		{
			OFFSET -0.279200 12.230698 -2.892100
			CHANNELS 3 Xrotation Yrotation Zrotation
			JOINT Spine1
			{
				OFFSET -0.232667 10.192268 -1.242267
				CHANNELS 3 Xrotation Yrotation Zrotation
				JOINT Spine1_split
				{
					OFFSET -0.232667 10.192268 -1.242267
					CHANNELS 3 Xrotation Yrotation Zrotation
					JOINT Spine2
					{
						OFFSET -0.232667 10.192268 -1.242267
						CHANNELS 3 Xrotation Yrotation Zrotation
						JOINT Neck_virtual
						{
							OFFSET 0.000000 0.000000 0.000000
							CHANNELS 3 Xrotation Yrotation Zrotation
							JOINT Neck
							{
								OFFSET -0.418800 17.814194 8.416900
								CHANNELS 3 Xrotation Yrotation Zrotation
								JOINT Head
								{
									OFFSET 0.000000 7.031097 3.806800
									CHANNELS 3 Xrotation Yrotation Zrotation
									JOINT HeadTop_End
									{
										OFFSET 0.000000 24.646606 12.978600
										CHANNELS 3 Xrotation Yrotation Zrotation
										End Site
										{
											OFFSET 0 0 0
										}
									}
								}
							}
						}
						JOINT LeftShoulder_virtual
						{
							OFFSET 0.000000 0.000000 0.000000
							CHANNELS 3 Xrotation Yrotation Zrotation
							JOINT LeftShoulder
							{
								OFFSET 8.476499 7.247704 -3.868750
								CHANNELS 3 Xrotation Yrotation Zrotation
								JOINT LeftShoulder_split
								{
									OFFSET 8.476499 7.247704 -3.868750
									CHANNELS 3 Xrotation Yrotation Zrotation
									JOINT LeftArm
									{
										OFFSET 9.308998 -2.777710 0.208600
										CHANNELS 3 Xrotation Yrotation Zrotation
										JOINT LeftForeArm
										{
											OFFSET 29.972298 0.000000 0.000000
											CHANNELS 3 Xrotation Yrotation Zrotation
											JOINT LeftHand
											{
												OFFSET 26.026505 0.000000 0.000000
												CHANNELS 3 Xrotation Yrotation Zrotation
												End Site
												{
													OFFSET 0 0 0
												}
											}
										}
									}
								}
							}
						}
						JOINT RightShoulder_virtual
						{
							OFFSET 0.000000 0.000000 0.000000
							CHANNELS 3 Xrotation Yrotation Zrotation
							JOINT RightShoulder
							{
								OFFSET -7.570500 7.247704 -3.868750
								CHANNELS 3 Xrotation Yrotation Zrotation
								JOINT RightShoulder_split
								{
									OFFSET -7.570500 7.247704 -3.868750
									CHANNELS 3 Xrotation Yrotation Zrotation
									JOINT RightArm
									{
										OFFSET -9.308998 -2.777710 0.208500
										CHANNELS 3 Xrotation Yrotation Zrotation
										JOINT RightForeArm
										{
											OFFSET -29.972300 0.000000 0.000000
											CHANNELS 3 Xrotation Yrotation Zrotation
											JOINT RightHand
											{
												OFFSET -26.026505 0.000000 0.000000
												CHANNELS 3 Xrotation Yrotation Zrotation
												End Site
												{
													OFFSET 0 0 0
												}
											}
										}
									}
								}
							}
						}
					}
				}
			}
		}
	}
}
MOTION
Frames: 8
Frame Time: 0.03333333
-12.490357 55.175850 -4.863815 0.000000 0.000000 0.000000 -3.245446 -6.405617 -1.025124 -72.969841 -10.448604 4.489927 70.274840 -15.834726 -6.224161 10.842679 -3.109140 -0.897507 -2.281120 1.148797 1.496158 0.000000 0.000000 0.000000 -3.146538 -1.274594 -0.700817 9.720128 5.438434 -9.820277 83.565609 2.413987 -0.628066 -55.206326 -10.338557 19.376203 -39.282112 -0.188674 -1.609967 0.000000 0.000000 0.000000 -6.555092 1.194031 -1.792714 11.812105 3.584444 -1.758057 5.811606 0.888384 -3.398081 0.387155 -1.006652 0.119348 0.000000 0.000000 0.000000 5.449111 0.880356 -2.906000 1.758049 -3.437740 10.013542 12.784491 1.547800 -6.138868 0.000000 0.000000 0.000000 5.164518 0.649322 -2.307470 -7.405786 -39.218909 -6.461359 -1.086590 -4.471982 -3.043571 -37.910173 -15.082174 -33.411714 -92.603418 -55.509063 -87.665574 0.000000 0.000000 0.000000 5.086283 0.495590 -2.664247 -8.776282 30.575639 12.154785 -2.247367 -2.660831 4.965978 -47.950431 6.498388 38.927745 -129.919651 54.689577 127.951054 0.000000 0.000000 0.000000 
-12.748215 60.526890 -4.191059 0.000000 0.000000 0.000000 -1.188394 -4.588904 -0.303772 -67.206999 -9.733229 2.999138 61.373361 -16.403113 -5.057390 11.532921 -4.631852 -0.828774 -4.503847 0.872892 1.956551 0.000000 0.000000 0.000000 -0.941629 1.264540 -0.105738 8.760343 2.686071 -8.101005 75.896898 0.596219 -1.238621 -51.382041 -9.907675 19.703356 -36.210436 0.550355 -2.491537 0.000000 0.000000 0.000000 -4.315860 2.668786 -1.228675 10.727512 2.967928 -1.804261 3.710108 0.464509 -3.907711 1.188280 -0.767373 0.255487 0.000000 0.000000 0.000000 3.343854 0.418358 -3.037170 -5.063498 -3.793584 8.892195 12.508899 0.727197 -6.462223 0.000000 0.000000 0.000000 2.942344 0.361406 -2.609931 -6.603869 -34.617970 -5.717569 -0.639235 -5.833768 -1.698590 -27.938930 -13.685857 -24.029389 -110.586172 -62.293620 -108.819182 0.000000 0.000000 0.000000 2.950596 0.044578 -3.075383 -7.759645 25.697467 9.236146 -2.237002 -1.453109 3.692440 -38.855505 11.058141 35.124343 -147.973740 57.755875 147.785664 0.000000 0.000000 0.000000 
-12.998173 67.157440 -3.019104 0.000000 0.000000 0.000000 1.100391 -2.992312 0.126480 -60.718155 -9.023305 2.155536 50.177459 -16.517561 -4.499439 13.872691 -5.529410 -0.430431 -5.387654 0.588311 2.059882 0.000000 0.000000 0.000000 1.411513 2.845292 0.286907 8.110588 -0.130488 -6.446075 65.133271 -1.079242 -1.785005 -44.681574 -8.438038 19.572561 -34.637791 1.221242 -2.811524 0.000000 0.000000 0.000000 -1.546898 3.611909 -0.868065 9.027178 2.707921 -1.555135 1.452976 0.390940 -4.339450 1.329596 -0.901464 0.591447 0.000000 0.000000 0.000000 1.296091 0.133416 -3.100586 -14.432198 -4.363503 7.336736 12.039809 -0.036328 -7.157777 0.000000 0.000000 0.000000 0.707730 0.351422 -2.917447 -5.803176 -28.305789 -4.973371 -0.639169 -5.730534 0.017907 -20.660808 -9.411249 -15.901982 -118.930423 -71.566989 -120.602931 0.000000 0.000000 0.000000 0.916190 -0.135979 -3.470410 -7.097031 20.236358 6.210181 -2.441915 0.243336 2.213701 -27.359680 12.327537 27.961994 -163.506396 63.368398 165.512054 0.000000 0.000000 0.000000 
-13.179176 74.328682 -1.485035 0.000000 0.000000 0.000000 3.381353 -1.886768 -0.045277 -53.874941 -8.177512 2.334929 38.036272 -15.818675 -4.389939 16.369725 -5.436714 0.272197 -4.657388 0.413783 1.612629 0.000000 0.000000 0.000000 3.607389 3.140850 0.221336 7.839303 -2.664956 -4.682459 52.451522 -2.437999 -2.246811 -35.547310 -5.949785 18.546527 -34.865711 1.806897 -2.540967 0.000000 0.000000 0.000000 1.256931 3.864685 -0.994261 7.150776 2.875262 -1.040199 -0.597142 0.746798 -4.491091 1.402343 -1.089766 0.903013 0.000000 0.000000 0.000000 -0.555979 0.162365 -2.956423 -25.879768 -4.954183 5.465438 11.606745 -0.667204 -8.054018 0.000000 0.000000 0.000000 -1.161735 0.631132 -3.109906 -5.002269 -20.861245 -4.006239 -1.584104 -4.142199 1.133110 -16.819150 -3.525302 -9.638135 -58.557841 -84.801785 -64.142990 0.000000 0.000000 0.000000 -0.738379 0.065654 -3.647344 -6.879188 14.482624 3.409711 -2.775335 1.642365 1.005702 -14.998547 8.836648 19.458562 174.253740 74.383799 -169.552097 0.000000 0.000000 0.000000 
-13.280581 80.855431 0.233776 0.000000 0.000000 0.000000 5.257195 -1.644916 -0.769465 -47.444178 -7.178139 3.509041 27.414219 -14.795580 -4.185369 17.782160 -4.846635 0.696615 -3.514895 0.312768 1.005609 0.000000 0.000000 0.000000 5.313199 2.769275 -0.469842 7.892401 -4.713380 -2.695233 40.415110 -3.461611 -2.669698 -25.338617 -3.014414 16.548493 -38.141306 2.370840 -1.968211 0.000000 0.000000 0.000000 3.434241 3.463542 -1.590471 5.642270 3.422542 -0.350742 -2.047963 1.447648 -4.221165 1.252197 -1.318331 0.800434 0.000000 0.000000 0.000000 -1.978816 0.514194 -2.530394 -38.036425 -5.211032 3.576435 11.513854 -1.207088 -8.986634 0.000000 0.000000 0.000000 -2.439610 1.219814 -3.016411 -4.356585 -13.281080 -2.642923 -3.375774 -2.005585 1.746024 -15.650417 3.393710 -5.159637 22.424314 -64.208457 12.046614 0.000000 0.000000 0.000000 -1.887449 0.671743 -3.424571 -7.092687 8.842240 1.053911 -2.968887 2.480713 0.353551 -4.386892 0.835294 11.996310 75.426045 79.215059 -67.553474 0.000000 0.000000 0.000000 
-13.253985 85.706909 2.069366 0.000000 0.000000 0.000000 6.366710 -2.306563 -1.939052 -42.200932 -6.271017 5.337822 20.499739 -14.228657 -3.588038 17.815812 -4.372209 0.527602 -3.561918 0.209415 0.653176 0.000000 0.000000 0.000000 6.308079 1.950638 -1.662096 8.163211 -6.193894 -0.752511 31.891243 -3.795574 -2.879172 -15.161698 -0.085403 14.559771 -44.857144 2.862151 -1.425615 0.000000 0.000000 0.000000 4.456645 2.619771 -2.521432 4.916552 4.135290 0.360921 -2.769368 2.282238 -3.515370 1.506820 -1.503645 0.715405 0.000000 0.000000 0.000000 -2.760288 1.102032 -1.826519 -49.064715 -4.895098 1.950404 11.917141 -1.495125 -9.743042 0.000000 0.000000 0.000000 -2.989487 1.947778 -2.531168 -3.997790 -6.370598 -0.336800 -5.035306 -0.532623 1.513964 -16.047222 9.794904 -2.179876 28.546738 -36.719927 12.471975 0.000000 0.000000 0.000000 -2.454304 1.488991 -2.736767 -7.581353 3.739361 -0.742399 -3.343366 2.823390 0.373290 3.281590 -9.373077 6.923368 36.730063 58.859360 -25.177590 0.000000 0.000000 0.000000 
-13.026147 88.449112 3.833755 0.000000 0.000000 0.000000 6.582063 -3.557660 -3.231571 -38.716886 -5.580932 7.219163 18.375338 -14.428478 -2.685890 16.563323 -4.298334 0.000492 -4.754275 0.111074 0.690470 0.000000 0.000000 0.000000 6.421958 1.219937 -3.142799 8.153095 -7.336217 0.438847 28.679951 -2.906201 -2.711158 -6.008286 2.847468 13.857786 -52.361569 3.192840 -1.054570 0.000000 0.000000 0.000000 4.346617 1.562835 -3.551324 4.967144 4.813602 0.934096 -2.847417 3.071350 -2.535036 2.351108 -0.973717 0.423185 0.000000 0.000000 0.000000 -2.882453 1.809734 -0.963741 -57.218933 -4.011472 1.005087 12.861430 -1.303057 -10.230401 0.000000 0.000000 0.000000 -2.995624 2.731745 -1.661281 -4.149919 -0.589720 2.669555 -5.947631 -0.353259 1.028679 -16.534682 14.057036 -0.943556 32.238756 -16.092122 10.125771 0.000000 0.000000 0.000000 -2.545470 2.308047 -1.813645 -8.175607 -0.679307 -2.086442 -4.096990 2.315927 0.909506 7.889440 -19.352853 3.646221 29.024021 38.837801 -13.682191 0.000000 0.000000 0.000000 
-12.672179 89.156601 5.311703 0.000000 0.000000 0.000000 6.004847 -4.598339 -4.306863 -37.258801 -5.229107 8.643475 20.514108 -15.111741 -1.689063 14.454709 -4.519011 -0.370193 -5.875190 0.037646 0.894824 0.000000 0.000000 0.000000 5.634728 1.172543 -4.537138 7.887963 -8.355370 0.583526 29.932963 -1.130297 -2.376676 0.763561 5.594881 13.998222 -57.508253 3.407587 -0.847899 0.000000 0.000000 0.000000 3.322180 0.768606 -4.406210 5.541968 5.285422 1.280418 -2.489006 3.668774 -1.510978 2.397332 -0.282928 0.321172 0.000000 0.000000 0.000000 -2.353372 2.466194 -0.169928 -61.648222 -2.802578 0.853074 14.146157 -0.561772 -10.467982 0.000000 0.000000 0.000000 -2.632389 3.451250 -0.563308 -4.815521 3.399853 6.107997 -5.705143 -0.803923 0.217601 -16.854161 16.170456 -0.492018 35.753708 -6.403765 8.444198 0.000000 0.000000 0.000000 -2.366765 2.919783 -0.867194 -8.804040 -4.138806 -3.147541 -5.068744 1.899780 1.355964 9.375006 -27.872621 0.938500 26.134793 25.889929 -7.402422 0.000000 0.000000 0.000000 
